<svg width="22" height="27" viewBox="0 0 22 27" fill="none" xmlns="http://www.w3.org/2000/svg">
<rect width="22" height="25.7575" transform="translate(0 0.444092)" fill="white"/>
<path d="M0 6.8835C0 5.10513 1.23105 3.66382 2.75 3.66382H19.25C20.7668 3.66382 22 5.10513 22 6.8835V19.7622C22 21.5381 20.7668 22.9819 19.25 22.9819H2.75C1.23105 22.9819 0 21.5381 0 19.7622V6.8835ZM2.0625 6.8835V7.9953L9.47461 15.1188C10.3598 15.9741 11.6402 15.9741 12.5254 15.1188L19.9375 7.9953V6.83822C19.9375 6.44079 19.6281 6.0333 19.25 6.0333H2.75C2.37016 6.0333 2.0625 6.44079 2.0625 6.83822V6.8835ZM2.0625 11.1194V19.7622C2.0625 20.2049 2.37016 20.5672 2.75 20.5672H19.25C19.6281 20.5672 19.9375 20.2049 19.9375 19.7622V11.1194L13.8359 16.9853C12.1859 18.5699 9.81406 18.5699 8.12539 16.9853L2.0625 11.1194Z" fill="#CFCFCF"/>
</svg>
